#define message_width 20
#define message_height 20
static unsigned char message_bits[] = {
   0x00, 0x00, 0x00, 0x00, 0x00, 0x00, 0x00, 0x00, 0x00, 0xff, 0xff, 0x0f,
   0x01, 0x00, 0x08, 0x03, 0x00, 0x0c, 0x05, 0x00, 0x0a, 0x09, 0x00, 0x09,
   0x11, 0x80, 0x08, 0x21, 0x40, 0x08, 0xc1, 0x30, 0x08, 0xb1, 0xd9, 0x08,
   0x09, 0x06, 0x09, 0x05, 0x00, 0x0a, 0x03, 0x00, 0x0c, 0x01, 0x00, 0x08,
   0xff, 0xff, 0x0f, 0x00, 0x00, 0x00, 0x00, 0x00, 0x00, 0x00, 0x00, 0x00 };
